<?xml version="1.0" encoding="UTF-8"?>
<svg xmlns="http://www.w3.org/2000/svg" xmlns:xlink="http://www.w3.org/1999/xlink" width="2000" zoomAndPan="magnify" viewBox="0 0 1500 1499.999933" height="2000" preserveAspectRatio="xMidYMid meet" version="1.0" style="background: transparent;"><defs><clipPath id="ac1771f55e"><path d="M 33 188 L 1103 188 L 1103 1432 L 33 1432 Z M 33 188 " clip-rule="nonzero"/></clipPath><clipPath id="e03e5ca7b5"><path d="M 477.28125 181.261719 L 1110.394531 479.195312 L 657.671875 1441.230469 L 24.5625 1143.296875 Z M 477.28125 181.261719 " clip-rule="nonzero"/></clipPath><clipPath id="258060de08"><path d="M 498.320312 191.164062 L 1089.355469 469.296875 C 1094.933594 471.921875 1099.242188 476.65625 1101.332031 482.457031 C 1103.421875 488.261719 1103.117188 494.652344 1100.492188 500.234375 L 668.664062 1417.875 C 666.039062 1423.457031 661.304688 1427.761719 655.5 1429.851562 C 649.699219 1431.941406 643.304688 1431.640625 637.726562 1429.011719 L 46.6875 1150.878906 C 41.109375 1148.253906 36.800781 1143.519531 34.714844 1137.71875 C 32.625 1131.914062 32.925781 1125.523438 35.550781 1119.941406 L 467.382812 202.300781 C 470.007812 196.71875 474.742188 192.414062 480.542969 190.324219 C 486.34375 188.234375 492.738281 188.535156 498.320312 191.164062 Z M 498.320312 191.164062 " clip-rule="nonzero"/></clipPath><clipPath id="721aae0527"><path d="M 0 0.160156 L 1070 0.160156 L 1070 1244 L 0 1244 Z M 0 0.160156 " clip-rule="nonzero"/></clipPath><clipPath id="15c5883fd5"><path d="M 444.28125 -6.738281 L 1077.394531 291.195312 L 624.671875 1253.230469 L -8.4375 955.296875 Z M 444.28125 -6.738281 " clip-rule="nonzero"/></clipPath><clipPath id="8b03a407c2"><path d="M 465.320312 3.164062 L 1056.355469 281.296875 C 1061.933594 283.921875 1066.242188 288.65625 1068.332031 294.457031 C 1070.421875 300.261719 1070.117188 306.652344 1067.492188 312.234375 L 635.664062 1229.875 C 633.039062 1235.457031 628.304688 1239.761719 622.5 1241.851562 C 616.699219 1243.941406 610.304688 1243.640625 604.726562 1241.011719 L 13.6875 962.878906 C 8.109375 960.253906 3.800781 955.519531 1.714844 949.71875 C -0.375 943.914062 -0.0742188 937.523438 2.550781 931.941406 L 434.382812 14.300781 C 437.007812 8.71875 441.742188 4.414062 447.542969 2.324219 C 453.34375 0.234375 459.738281 0.535156 465.320312 3.164062 Z M 465.320312 3.164062 " clip-rule="nonzero"/></clipPath><clipPath id="254ac1b165"><rect x="0" width="1070" y="0" height="1244"/></clipPath><clipPath id="3d7e99ff42"><path d="M 218 125 L 1288 125 L 1288 1368 L 218 1368 Z M 218 125 " clip-rule="nonzero"/></clipPath><clipPath id="506dc0d455"><path d="M 662.039062 117.671875 L 1295.148438 415.605469 L 842.429688 1377.640625 L 209.316406 1079.707031 Z M 662.039062 117.671875 " clip-rule="nonzero"/></clipPath><clipPath id="38d8e59a18"><path d="M 683.074219 127.574219 L 1274.113281 405.707031 C 1279.691406 408.332031 1284 413.066406 1286.089844 418.867188 C 1288.175781 424.671875 1287.875 431.066406 1285.25 436.644531 L 853.417969 1354.285156 C 850.792969 1359.867188 846.058594 1364.175781 840.257812 1366.261719 C 834.457031 1368.351562 828.0625 1368.050781 822.484375 1365.425781 L 231.445312 1087.289062 C 225.867188 1084.664062 221.558594 1079.929688 219.46875 1074.128906 C 217.378906 1068.328125 217.683594 1061.933594 220.308594 1056.351562 L 652.136719 138.710938 C 654.761719 133.132812 659.496094 128.824219 665.300781 126.734375 C 671.101562 124.644531 677.496094 124.949219 683.074219 127.574219 Z M 683.074219 127.574219 " clip-rule="nonzero"/></clipPath><clipPath id="c0e08c449a"><path d="M 0 0 L 1070 0 L 1070 1243 L 0 1243 Z M 0 0 " clip-rule="nonzero"/></clipPath><clipPath id="a1870f9a06"><path d="M 444.039062 -7.328125 L 1077.148438 290.605469 L 624.429688 1252.640625 L -8.683594 954.707031 Z M 444.039062 -7.328125 " clip-rule="nonzero"/></clipPath><clipPath id="414e8d70c1"><path d="M 465.074219 2.574219 L 1056.113281 280.707031 C 1061.691406 283.332031 1066 288.066406 1068.089844 293.867188 C 1070.175781 299.671875 1069.875 306.066406 1067.25 311.644531 L 635.417969 1229.285156 C 632.792969 1234.867188 628.058594 1239.175781 622.257812 1241.261719 C 616.457031 1243.351562 610.0625 1243.050781 604.484375 1240.425781 L 13.445312 962.289062 C 7.867188 959.664062 3.558594 954.929688 1.46875 949.128906 C -0.621094 943.328125 -0.316406 936.933594 2.308594 931.351562 L 434.136719 13.710938 C 436.761719 8.132812 441.496094 3.824219 447.300781 1.734375 C 453.101562 -0.355469 459.496094 -0.0507812 465.074219 2.574219 Z M 465.074219 2.574219 " clip-rule="nonzero"/></clipPath><clipPath id="5672670f3e"><rect x="0" width="1070" y="0" height="1243"/></clipPath><clipPath id="79bd35ab00"><path d="M 390 65 L 1460 65 L 1460 1308 L 390 1308 Z M 390 65 " clip-rule="nonzero"/></clipPath><clipPath id="84fb8b6d39"><path d="M 834.304688 57.589844 L 1467.417969 355.523438 L 1014.695312 1317.554688 L 381.585938 1019.621094 Z M 834.304688 57.589844 " clip-rule="nonzero"/></clipPath><clipPath id="98c283a8bd"><path d="M 855.34375 67.488281 L 1446.378906 345.625 C 1451.957031 348.25 1456.265625 352.984375 1458.355469 358.785156 C 1460.445312 364.585938 1460.140625 370.980469 1457.515625 376.558594 L 1025.6875 1294.203125 C 1023.0625 1299.78125 1018.328125 1304.089844 1012.523438 1306.179688 C 1006.722656 1308.269531 1000.328125 1307.964844 994.75 1305.339844 L 403.710938 1027.207031 C 398.132812 1024.582031 393.824219 1019.847656 391.738281 1014.042969 C 389.648438 1008.242188 389.949219 1001.847656 392.574219 996.269531 L 824.40625 78.625 C 827.03125 73.046875 831.765625 68.738281 837.566406 66.652344 C 843.367188 64.5625 849.761719 64.863281 855.34375 67.488281 Z M 855.34375 67.488281 " clip-rule="nonzero"/></clipPath><clipPath id="2c024dcc3f"><path d="M 0 0 L 1070 0 L 1070 1243 L 0 1243 Z M 0 0 " clip-rule="nonzero"/></clipPath><clipPath id="ef1b53edf4"><path d="M 444.304688 -7.410156 L 1077.417969 290.523438 L 624.695312 1252.554688 L -8.414062 954.621094 Z M 444.304688 -7.410156 " clip-rule="nonzero"/></clipPath><clipPath id="3477bdde92"><path d="M 465.34375 2.488281 L 1056.378906 280.625 C 1061.957031 283.25 1066.265625 287.984375 1068.355469 293.785156 C 1070.445312 299.585938 1070.140625 305.980469 1067.515625 311.558594 L 635.6875 1229.203125 C 633.0625 1234.78125 628.328125 1239.089844 622.523438 1241.179688 C 616.722656 1243.269531 610.328125 1242.964844 604.75 1240.339844 L 13.710938 962.207031 C 8.132812 959.582031 3.824219 954.847656 1.738281 949.042969 C -0.351562 943.242188 -0.0507812 936.847656 2.574219 931.269531 L 434.40625 13.625 C 437.03125 8.046875 441.765625 3.738281 447.566406 1.652344 C 453.367188 -0.4375 459.761719 -0.136719 465.34375 2.488281 Z M 465.34375 2.488281 " clip-rule="nonzero"/></clipPath><clipPath id="67a103b08f"><path d="M 444.304688 -7.410156 L 1077.417969 290.523438 L 625.859375 1250.082031 L -7.25 952.148438 Z M 444.304688 -7.410156 " clip-rule="nonzero"/></clipPath><clipPath id="0646320ef1"><path d="M 444.304688 -7.410156 L 1077.417969 290.523438 L 625.789062 1250.238281 L -7.324219 952.304688 Z M 444.304688 -7.410156 " clip-rule="nonzero"/></clipPath><linearGradient x1="-153.690039" gradientTransform="matrix(2.473092, 1.163804, -1.163804, 2.473092, 444.305241, -7.411011)" y1="475.722044" x2="409.690017" gradientUnits="userSpaceOnUse" y2="-87.658033" id="6f2e634856"><stop stop-opacity="1" stop-color="rgb(41.569519%, 54.119873%, 100%)" offset="0"/><stop stop-opacity="1" stop-color="rgb(41.569519%, 54.119873%, 100%)" offset="0.125"/><stop stop-opacity="1" stop-color="rgb(41.569519%, 54.119873%, 100%)" offset="0.1875"/><stop stop-opacity="1" stop-color="rgb(41.680908%, 54.295349%, 100%)" offset="0.21875"/><stop stop-opacity="1" stop-color="rgb(41.986084%, 54.774475%, 100%)" offset="0.222656"/><stop stop-opacity="1" stop-color="rgb(42.179871%, 55.078125%, 100%)" offset="0.226562"/><stop stop-opacity="1" stop-color="rgb(42.372131%, 55.380249%, 100%)" offset="0.230469"/><stop stop-opacity="1" stop-color="rgb(42.565918%, 55.683899%, 100%)" offset="0.234375"/><stop stop-opacity="1" stop-color="rgb(42.758179%, 55.986023%, 100%)" offset="0.238281"/><stop stop-opacity="1" stop-color="rgb(42.951965%, 56.289673%, 100%)" offset="0.242188"/><stop stop-opacity="1" stop-color="rgb(43.144226%, 56.591797%, 100%)" offset="0.246094"/><stop stop-opacity="1" stop-color="rgb(43.338013%, 56.893921%, 100%)" offset="0.25"/><stop stop-opacity="1" stop-color="rgb(43.530273%, 57.196045%, 100%)" offset="0.253906"/><stop stop-opacity="1" stop-color="rgb(43.72406%, 57.499695%, 100%)" offset="0.257812"/><stop stop-opacity="1" stop-color="rgb(43.916321%, 57.801819%, 100%)" offset="0.261719"/><stop stop-opacity="1" stop-color="rgb(44.108582%, 58.105469%, 100%)" offset="0.265625"/><stop stop-opacity="1" stop-color="rgb(44.300842%, 58.407593%, 100%)" offset="0.269531"/><stop stop-opacity="1" stop-color="rgb(44.494629%, 58.711243%, 100%)" offset="0.273438"/><stop stop-opacity="1" stop-color="rgb(44.68689%, 59.013367%, 100%)" offset="0.277344"/><stop stop-opacity="1" stop-color="rgb(44.880676%, 59.317017%, 100%)" offset="0.28125"/><stop stop-opacity="1" stop-color="rgb(45.072937%, 59.619141%, 100%)" offset="0.285156"/><stop stop-opacity="1" stop-color="rgb(45.266724%, 59.922791%, 100%)" offset="0.289062"/><stop stop-opacity="1" stop-color="rgb(45.458984%, 60.224915%, 100%)" offset="0.292969"/><stop stop-opacity="1" stop-color="rgb(45.652771%, 60.528564%, 100%)" offset="0.296875"/><stop stop-opacity="1" stop-color="rgb(45.845032%, 60.830688%, 100%)" offset="0.300781"/><stop stop-opacity="1" stop-color="rgb(46.038818%, 61.134338%, 100%)" offset="0.304688"/><stop stop-opacity="1" stop-color="rgb(46.231079%, 61.436462%, 100%)" offset="0.308594"/><stop stop-opacity="1" stop-color="rgb(46.424866%, 61.740112%, 100%)" offset="0.3125"/><stop stop-opacity="1" stop-color="rgb(46.617126%, 62.042236%, 100%)" offset="0.316406"/><stop stop-opacity="1" stop-color="rgb(46.809387%, 62.345886%, 100%)" offset="0.320313"/><stop stop-opacity="1" stop-color="rgb(47.001648%, 62.64801%, 100%)" offset="0.324219"/><stop stop-opacity="1" stop-color="rgb(47.195435%, 62.950134%, 100%)" offset="0.328125"/><stop stop-opacity="1" stop-color="rgb(47.387695%, 63.252258%, 100%)" offset="0.332031"/><stop stop-opacity="1" stop-color="rgb(47.581482%, 63.555908%, 100%)" offset="0.335937"/><stop stop-opacity="1" stop-color="rgb(47.773743%, 63.858032%, 100%)" offset="0.339844"/><stop stop-opacity="1" stop-color="rgb(47.967529%, 64.161682%, 100%)" offset="0.34375"/><stop stop-opacity="1" stop-color="rgb(48.15979%, 64.463806%, 100%)" offset="0.347656"/><stop stop-opacity="1" stop-color="rgb(48.353577%, 64.767456%, 100%)" offset="0.351562"/><stop stop-opacity="1" stop-color="rgb(48.545837%, 65.06958%, 100%)" offset="0.355469"/><stop stop-opacity="1" stop-color="rgb(48.739624%, 65.37323%, 100%)" offset="0.359375"/><stop stop-opacity="1" stop-color="rgb(48.931885%, 65.675354%, 100%)" offset="0.363281"/><stop stop-opacity="1" stop-color="rgb(49.125671%, 65.979004%, 100%)" offset="0.367187"/><stop stop-opacity="1" stop-color="rgb(49.317932%, 66.281128%, 100%)" offset="0.371094"/><stop stop-opacity="1" stop-color="rgb(49.510193%, 66.584778%, 100%)" offset="0.375"/><stop stop-opacity="1" stop-color="rgb(49.702454%, 66.886902%, 100%)" offset="0.378906"/><stop stop-opacity="1" stop-color="rgb(49.89624%, 67.190552%, 100%)" offset="0.382812"/><stop stop-opacity="1" stop-color="rgb(50.088501%, 67.492676%, 100%)" offset="0.386719"/><stop stop-opacity="1" stop-color="rgb(50.282288%, 67.796326%, 100%)" offset="0.390625"/><stop stop-opacity="1" stop-color="rgb(50.474548%, 68.09845%, 100%)" offset="0.394531"/><stop stop-opacity="1" stop-color="rgb(50.668335%, 68.400574%, 100%)" offset="0.398437"/><stop stop-opacity="1" stop-color="rgb(50.860596%, 68.702698%, 100%)" offset="0.402344"/><stop stop-opacity="1" stop-color="rgb(51.054382%, 69.006348%, 100%)" offset="0.40625"/><stop stop-opacity="1" stop-color="rgb(51.246643%, 69.308472%, 100%)" offset="0.410156"/><stop stop-opacity="1" stop-color="rgb(51.44043%, 69.612122%, 100%)" offset="0.414062"/><stop stop-opacity="1" stop-color="rgb(51.63269%, 69.914246%, 100%)" offset="0.417969"/><stop stop-opacity="1" stop-color="rgb(51.826477%, 70.217896%, 100%)" offset="0.421875"/><stop stop-opacity="1" stop-color="rgb(52.018738%, 70.52002%, 100%)" offset="0.425781"/><stop stop-opacity="1" stop-color="rgb(52.210999%, 70.823669%, 100%)" offset="0.429688"/><stop stop-opacity="1" stop-color="rgb(52.403259%, 71.125793%, 100%)" offset="0.433594"/><stop stop-opacity="1" stop-color="rgb(52.597046%, 71.429443%, 100%)" offset="0.4375"/><stop stop-opacity="1" stop-color="rgb(52.789307%, 71.731567%, 100%)" offset="0.441406"/><stop stop-opacity="1" stop-color="rgb(52.983093%, 72.035217%, 100%)" offset="0.445312"/><stop stop-opacity="1" stop-color="rgb(53.175354%, 72.337341%, 100%)" offset="0.449219"/><stop stop-opacity="1" stop-color="rgb(53.369141%, 72.640991%, 100%)" offset="0.453125"/><stop stop-opacity="1" stop-color="rgb(53.561401%, 72.943115%, 100%)" offset="0.457031"/><stop stop-opacity="1" stop-color="rgb(53.755188%, 73.246765%, 100%)" offset="0.460938"/><stop stop-opacity="1" stop-color="rgb(53.947449%, 73.548889%, 100%)" offset="0.464844"/><stop stop-opacity="1" stop-color="rgb(54.141235%, 73.852539%, 100%)" offset="0.46875"/><stop stop-opacity="1" stop-color="rgb(54.333496%, 74.154663%, 100%)" offset="0.472656"/><stop stop-opacity="1" stop-color="rgb(54.527283%, 74.456787%, 100%)" offset="0.476562"/><stop stop-opacity="1" stop-color="rgb(54.719543%, 74.758911%, 100%)" offset="0.480469"/><stop stop-opacity="1" stop-color="rgb(54.911804%, 75.062561%, 100%)" offset="0.484375"/><stop stop-opacity="1" stop-color="rgb(55.104065%, 75.364685%, 100%)" offset="0.488281"/><stop stop-opacity="1" stop-color="rgb(55.297852%, 75.668335%, 100%)" offset="0.492188"/><stop stop-opacity="1" stop-color="rgb(55.490112%, 75.970459%, 100%)" offset="0.496094"/><stop stop-opacity="1" stop-color="rgb(55.683899%, 76.274109%, 100%)" offset="0.5"/><stop stop-opacity="1" stop-color="rgb(55.87616%, 76.576233%, 100%)" offset="0.503906"/><stop stop-opacity="1" stop-color="rgb(56.069946%, 76.879883%, 100%)" offset="0.507812"/><stop stop-opacity="1" stop-color="rgb(56.262207%, 77.182007%, 100%)" offset="0.511719"/><stop stop-opacity="1" stop-color="rgb(56.455994%, 77.485657%, 100%)" offset="0.515625"/><stop stop-opacity="1" stop-color="rgb(56.648254%, 77.787781%, 100%)" offset="0.519531"/><stop stop-opacity="1" stop-color="rgb(56.842041%, 78.091431%, 100%)" offset="0.523438"/><stop stop-opacity="1" stop-color="rgb(57.034302%, 78.393555%, 100%)" offset="0.527344"/><stop stop-opacity="1" stop-color="rgb(57.228088%, 78.697205%, 100%)" offset="0.53125"/><stop stop-opacity="1" stop-color="rgb(57.420349%, 78.999329%, 100%)" offset="0.535156"/><stop stop-opacity="1" stop-color="rgb(57.614136%, 79.302979%, 100%)" offset="0.539063"/><stop stop-opacity="1" stop-color="rgb(57.806396%, 79.605103%, 100%)" offset="0.542969"/><stop stop-opacity="1" stop-color="rgb(57.998657%, 79.907227%, 100%)" offset="0.546875"/><stop stop-opacity="1" stop-color="rgb(58.190918%, 80.209351%, 100%)" offset="0.550781"/><stop stop-opacity="1" stop-color="rgb(58.384705%, 80.513%, 100%)" offset="0.554688"/><stop stop-opacity="1" stop-color="rgb(58.576965%, 80.815125%, 100%)" offset="0.558594"/><stop stop-opacity="1" stop-color="rgb(58.770752%, 81.118774%, 100%)" offset="0.5625"/><stop stop-opacity="1" stop-color="rgb(58.963013%, 81.420898%, 100%)" offset="0.566406"/><stop stop-opacity="1" stop-color="rgb(59.156799%, 81.724548%, 100%)" offset="0.570313"/><stop stop-opacity="1" stop-color="rgb(59.34906%, 82.026672%, 100%)" offset="0.574219"/><stop stop-opacity="1" stop-color="rgb(59.542847%, 82.330322%, 100%)" offset="0.578125"/><stop stop-opacity="1" stop-color="rgb(59.735107%, 82.632446%, 100%)" offset="0.582031"/><stop stop-opacity="1" stop-color="rgb(59.928894%, 82.936096%, 100%)" offset="0.585938"/><stop stop-opacity="1" stop-color="rgb(60.121155%, 83.23822%, 100%)" offset="0.589844"/><stop stop-opacity="1" stop-color="rgb(60.314941%, 83.54187%, 100%)" offset="0.59375"/><stop stop-opacity="1" stop-color="rgb(60.507202%, 83.843994%, 100%)" offset="0.597656"/><stop stop-opacity="1" stop-color="rgb(60.699463%, 84.147644%, 100%)" offset="0.601563"/><stop stop-opacity="1" stop-color="rgb(60.891724%, 84.449768%, 100%)" offset="0.605469"/><stop stop-opacity="1" stop-color="rgb(61.08551%, 84.753418%, 100%)" offset="0.609375"/><stop stop-opacity="1" stop-color="rgb(61.277771%, 85.055542%, 100%)" offset="0.613281"/><stop stop-opacity="1" stop-color="rgb(61.471558%, 85.357666%, 100%)" offset="0.617188"/><stop stop-opacity="1" stop-color="rgb(61.663818%, 85.65979%, 100%)" offset="0.621094"/><stop stop-opacity="1" stop-color="rgb(61.857605%, 85.96344%, 100%)" offset="0.625"/><stop stop-opacity="1" stop-color="rgb(62.049866%, 86.265564%, 100%)" offset="0.628906"/><stop stop-opacity="1" stop-color="rgb(62.243652%, 86.569214%, 100%)" offset="0.632812"/><stop stop-opacity="1" stop-color="rgb(62.435913%, 86.871338%, 100%)" offset="0.636719"/><stop stop-opacity="1" stop-color="rgb(62.6297%, 87.174988%, 100%)" offset="0.640625"/><stop stop-opacity="1" stop-color="rgb(62.82196%, 87.477112%, 100%)" offset="0.644531"/><stop stop-opacity="1" stop-color="rgb(63.015747%, 87.780762%, 100%)" offset="0.648438"/><stop stop-opacity="1" stop-color="rgb(63.208008%, 88.082886%, 100%)" offset="0.652344"/><stop stop-opacity="1" stop-color="rgb(63.400269%, 88.386536%, 100%)" offset="0.65625"/><stop stop-opacity="1" stop-color="rgb(63.592529%, 88.68866%, 100%)" offset="0.660156"/><stop stop-opacity="1" stop-color="rgb(63.786316%, 88.99231%, 100%)" offset="0.664062"/><stop stop-opacity="1" stop-color="rgb(63.978577%, 89.294434%, 100%)" offset="0.667969"/><stop stop-opacity="1" stop-color="rgb(64.172363%, 89.598083%, 100%)" offset="0.671875"/><stop stop-opacity="1" stop-color="rgb(64.364624%, 89.900208%, 100%)" offset="0.675781"/><stop stop-opacity="1" stop-color="rgb(64.558411%, 90.203857%, 100%)" offset="0.679688"/><stop stop-opacity="1" stop-color="rgb(64.750671%, 90.505981%, 100%)" offset="0.683594"/><stop stop-opacity="1" stop-color="rgb(64.944458%, 90.809631%, 100%)" offset="0.6875"/><stop stop-opacity="1" stop-color="rgb(65.136719%, 91.111755%, 100%)" offset="0.691406"/><stop stop-opacity="1" stop-color="rgb(65.330505%, 91.413879%, 100%)" offset="0.695312"/><stop stop-opacity="1" stop-color="rgb(65.522766%, 91.716003%, 100%)" offset="0.699219"/><stop stop-opacity="1" stop-color="rgb(65.716553%, 92.019653%, 100%)" offset="0.703125"/><stop stop-opacity="1" stop-color="rgb(65.908813%, 92.321777%, 100%)" offset="0.707031"/><stop stop-opacity="1" stop-color="rgb(66.101074%, 92.625427%, 100%)" offset="0.710938"/><stop stop-opacity="1" stop-color="rgb(66.293335%, 92.927551%, 100%)" offset="0.714844"/><stop stop-opacity="1" stop-color="rgb(66.487122%, 93.231201%, 100%)" offset="0.71875"/><stop stop-opacity="1" stop-color="rgb(66.679382%, 93.533325%, 100%)" offset="0.722656"/><stop stop-opacity="1" stop-color="rgb(66.873169%, 93.836975%, 100%)" offset="0.726562"/><stop stop-opacity="1" stop-color="rgb(67.06543%, 94.139099%, 100%)" offset="0.730469"/><stop stop-opacity="1" stop-color="rgb(67.259216%, 94.442749%, 100%)" offset="0.734375"/><stop stop-opacity="1" stop-color="rgb(67.451477%, 94.744873%, 100%)" offset="0.738281"/><stop stop-opacity="1" stop-color="rgb(67.645264%, 95.048523%, 100%)" offset="0.742187"/><stop stop-opacity="1" stop-color="rgb(67.837524%, 95.350647%, 100%)" offset="0.746094"/><stop stop-opacity="1" stop-color="rgb(68.031311%, 95.654297%, 100%)" offset="0.75"/><stop stop-opacity="1" stop-color="rgb(68.223572%, 95.956421%, 100%)" offset="0.753906"/><stop stop-opacity="1" stop-color="rgb(68.417358%, 96.260071%, 100%)" offset="0.757812"/><stop stop-opacity="1" stop-color="rgb(68.609619%, 96.562195%, 100%)" offset="0.761719"/><stop stop-opacity="1" stop-color="rgb(68.803406%, 96.864319%, 100%)" offset="0.765625"/><stop stop-opacity="1" stop-color="rgb(68.995667%, 97.166443%, 100%)" offset="0.769531"/><stop stop-opacity="1" stop-color="rgb(69.187927%, 97.470093%, 100%)" offset="0.773437"/><stop stop-opacity="1" stop-color="rgb(69.380188%, 97.772217%, 100%)" offset="0.777344"/><stop stop-opacity="1" stop-color="rgb(69.573975%, 98.075867%, 100%)" offset="0.78125"/><stop stop-opacity="1" stop-color="rgb(69.68689%, 98.252869%, 100%)" offset="0.8125"/><stop stop-opacity="1" stop-color="rgb(69.799805%, 98.429871%, 100%)" offset="0.875"/><stop stop-opacity="1" stop-color="rgb(69.799805%, 98.429871%, 100%)" offset="1"/></linearGradient><clipPath id="11b3c9176d"><rect x="0" width="1070" y="0" height="1243"/></clipPath></defs><g clip-path="url(#ac1771f55e)"><g clip-path="url(#e03e5ca7b5)"><g clip-path="url(#258060de08)"><g transform="matrix(1, 0, 0, 1, 33, 188)"><g clip-path="url(#254ac1b165)"><g clip-path="url(#721aae0527)"><g clip-path="url(#15c5883fd5)"><g clip-path="url(#8b03a407c2)"><path fill="#3e5ff4" d="M 444.28125 -6.738281 L 1077.394531 291.195312 L 625.835938 1250.757812 L -7.273438 952.824219 Z M 444.28125 -6.738281 " fill-opacity="1" fill-rule="nonzero"/></g></g></g></g></g></g></g></g><g clip-path="url(#3d7e99ff42)"><g clip-path="url(#506dc0d455)"><g clip-path="url(#38d8e59a18)"><g transform="matrix(1, 0, 0, 1, 218, 125)"><g clip-path="url(#5672670f3e)"><g clip-path="url(#c0e08c449a)"><g clip-path="url(#a1870f9a06)"><g clip-path="url(#414e8d70c1)"><path fill="#5271ff" d="M 444.039062 -7.328125 L 1077.148438 290.605469 L 625.59375 1250.167969 L -7.519531 952.234375 Z M 444.039062 -7.328125 " fill-opacity="1" fill-rule="nonzero"/></g></g></g></g></g></g></g></g><g clip-path="url(#79bd35ab00)"><g clip-path="url(#84fb8b6d39)"><g clip-path="url(#98c283a8bd)"><g transform="matrix(1, 0, 0, 1, 390, 65)"><g clip-path="url(#11b3c9176d)"><g clip-path="url(#2c024dcc3f)"><g clip-path="url(#ef1b53edf4)"><g clip-path="url(#3477bdde92)"><g clip-path="url(#67a103b08f)"><g clip-path="url(#0646320ef1)"><path fill="url(#6f2e634856)" d="M 193.785156 -412.980469 L -479.511719 1017.78125 L 876.304688 1655.8125 L 1549.605469 225.046875 Z M 193.785156 -412.980469 " fill-rule="nonzero"/></g></g></g></g></g></g></g></g></g></g></svg>